<?xml version="1.0" encoding="utf-8"?>
<!-- Generator: Adobe Illustrator 23.0.1, SVG Export Plug-In . SVG Version: 6.00 Build 0)  -->
<svg version="1.1" id="Layer_1" xmlns="http://www.w3.org/2000/svg" xmlns:xlink="http://www.w3.org/1999/xlink" x="0px" y="0px"
	 viewBox="0 0 287.4 70.9" style="enable-background:new 0 0 287.4 70.9;" xml:space="preserve">
<style type="text/css">
	.st0{enable-background:new    ;}
	.st1{fill:#53C8EA;}
	.st2{fill:#FFFFFF;}
</style>
<g class="st0">
	<path class="st1" d="M5.7,47.5c0.5,0.4,0.7,1,0.7,1.8c0,0.8-0.2,1.4-0.7,1.8s-1.2,0.7-2,0.7H2.1v2.1H0.9v-7h2.8
		C4.5,46.9,5.2,47.1,5.7,47.5z M2.1,50.7h1.6c0.5,0,1-0.1,1.3-0.4s0.4-0.6,0.4-1.1c0-0.5-0.1-0.8-0.4-1s-0.7-0.3-1.3-0.3H2.1V50.7z"
		/>
	<path class="st1" d="M9.4,48.8c0.3-0.2,0.7-0.3,1.1-0.3v1.1c-0.5,0-1,0.1-1.3,0.4c-0.3,0.3-0.5,0.6-0.6,1.1v2.8H7.5v-5.3h1.2v1.1
		C8.9,49.2,9.1,49,9.4,48.8z"/>
	<path class="st1" d="M15.5,49.2c0.4,0.5,0.6,1.1,0.6,2c0,0.1,0,0.2,0,0.4h-4c0.1,0.4,0.3,0.7,0.6,1s0.6,0.4,1.1,0.4
		c0.3,0,0.6-0.1,0.8-0.2s0.5-0.3,0.7-0.5l0.6,0.6c-0.3,0.3-0.6,0.5-1,0.7s-0.8,0.2-1.2,0.2c-0.5,0-1-0.1-1.4-0.3
		c-0.4-0.2-0.7-0.5-1-0.9S11,51.7,11,51.2s0.1-1,0.3-1.4c0.2-0.4,0.5-0.7,1-1s0.9-0.3,1.4-0.3C14.5,48.5,15.1,48.7,15.5,49.2z
		 M14.7,49.8c-0.3-0.2-0.6-0.4-1-0.4c-0.4,0-0.8,0.1-1,0.4c-0.3,0.2-0.4,0.6-0.5,1h3C15.1,50.4,15,50,14.7,49.8z"/>
	<path class="st1" d="M22.4,53.9h-1.1V53c-0.2,0.3-0.4,0.5-0.8,0.7s-0.7,0.2-1.1,0.2c-0.5,0-1-0.1-1.3-0.3c-0.4-0.2-0.7-0.6-0.9-1
		s-0.3-0.9-0.3-1.4c0-0.5,0.1-1,0.3-1.4s0.5-0.7,0.9-0.9c0.4-0.2,0.8-0.3,1.3-0.3c0.4,0,0.8,0.1,1.1,0.3c0.3,0.2,0.6,0.4,0.8,0.7v-3
		h1.1V53.9z M20.8,52.5c0.3-0.3,0.5-0.7,0.5-1.2c0-0.5-0.2-0.9-0.5-1.3s-0.7-0.5-1.2-0.5c-0.5,0-0.9,0.2-1.2,0.5
		c-0.3,0.3-0.5,0.7-0.5,1.3c0,0.5,0.2,0.9,0.5,1.2c0.3,0.3,0.7,0.5,1.2,0.5C20.1,53,20.5,52.8,20.8,52.5z"/>
	<path class="st1" d="M25.2,46.5c0.1,0.1,0.2,0.3,0.2,0.5c0,0.2-0.1,0.4-0.2,0.5s-0.3,0.2-0.5,0.2c-0.2,0-0.4-0.1-0.5-0.2
		c-0.1-0.1-0.2-0.3-0.2-0.5c0-0.2,0.1-0.4,0.2-0.5s0.3-0.2,0.5-0.2C24.9,46.3,25.1,46.4,25.2,46.5z M24.2,53.9v-5.3h1.1v5.3H24.2z"
		/>
	<path class="st1" d="M30.5,48.7c0.4,0.1,0.7,0.4,0.9,0.6l-0.6,0.7c-0.4-0.4-0.9-0.6-1.5-0.6c-0.5,0-0.9,0.2-1.2,0.5
		c-0.3,0.3-0.5,0.7-0.5,1.2c0,0.5,0.1,0.9,0.4,1.2s0.7,0.5,1.1,0.5c0.7,0,1.2-0.2,1.6-0.6l0.6,0.6c-0.2,0.3-0.6,0.6-0.9,0.7
		c-0.4,0.2-0.8,0.3-1.3,0.3c-0.5,0-1-0.1-1.4-0.3c-0.4-0.2-0.7-0.5-0.9-0.9s-0.3-0.9-0.3-1.4c0-0.5,0.1-1,0.3-1.4
		c0.2-0.4,0.5-0.7,0.9-1s0.9-0.3,1.4-0.3C29.7,48.5,30.1,48.6,30.5,48.7z"/>
	<path class="st1" d="M33.7,46.5c0.1,0.1,0.2,0.3,0.2,0.5c0,0.2-0.1,0.4-0.2,0.5s-0.3,0.2-0.5,0.2c-0.2,0-0.4-0.1-0.5-0.2
		c-0.1-0.1-0.2-0.3-0.2-0.5c0-0.2,0.1-0.4,0.2-0.5s0.3-0.2,0.5-0.2C33.4,46.3,33.6,46.4,33.7,46.5z M32.6,53.9v-5.3h1.1v5.3H32.6z"
		/>
	<path class="st1" d="M37.2,53.9c-0.4,0-0.8-0.1-1.1-0.4s-0.4-0.6-0.4-1.2v-2.8h-0.8v-0.9h0.8v-1.5h1.1v1.5h1.6v0.9h-1.6v2.5
		c0,0.3,0,0.5,0.1,0.6c0.1,0.1,0.2,0.2,0.4,0.2c0.2,0,0.5-0.1,0.8-0.2l0.3,0.9C38,53.8,37.6,53.9,37.2,53.9z"/>
	<path class="st1" d="M40.6,46.5c0.1,0.1,0.2,0.3,0.2,0.5c0,0.2-0.1,0.4-0.2,0.5s-0.3,0.2-0.5,0.2c-0.2,0-0.4-0.1-0.5-0.2
		c-0.1-0.1-0.2-0.3-0.2-0.5c0-0.2,0.1-0.4,0.2-0.5s0.3-0.2,0.5-0.2C40.3,46.3,40.5,46.4,40.6,46.5z M39.5,53.9v-5.3h1.1v5.3H39.5z"
		/>
	<path class="st1" d="M43.6,53.9l-2.1-5.3h1.2l1.5,4.2l1.5-4.2h1.1l-2,5.3H43.6z"/>
	<path class="st1" d="M51.5,49.2c0.4,0.5,0.6,1.1,0.6,2c0,0.1,0,0.2,0,0.4h-4c0.1,0.4,0.3,0.7,0.6,1s0.6,0.4,1.1,0.4
		c0.3,0,0.6-0.1,0.8-0.2s0.5-0.3,0.7-0.5l0.6,0.6c-0.3,0.3-0.6,0.5-1,0.7s-0.8,0.2-1.2,0.2c-0.5,0-1-0.1-1.4-0.3
		c-0.4-0.2-0.7-0.5-1-0.9s-0.3-0.9-0.3-1.4s0.1-1,0.3-1.4c0.2-0.4,0.5-0.7,1-1s0.9-0.3,1.4-0.3C50.5,48.5,51.1,48.7,51.5,49.2z
		 M50.7,49.8c-0.3-0.2-0.6-0.4-1-0.4c-0.4,0-0.8,0.1-1,0.4c-0.3,0.2-0.4,0.6-0.5,1h3C51.1,50.4,51,50,50.7,49.8z"/>
</g>
<g class="st0">
	<path class="st1" d="M6,66.5l-0.7,1.6H4.1l3.1-7h1.2l3.1,7h-1.3l-0.7-1.6H6z M7.7,62.3l-1.3,3.1H9L7.7,62.3z"/>
	<path class="st1" d="M16.8,63.3c0.4,0.4,0.5,0.9,0.5,1.5v3.3h-1.2v-3c0-0.4-0.1-0.7-0.3-0.9s-0.5-0.3-0.9-0.3c-0.4,0-0.8,0.1-1,0.4
		s-0.4,0.6-0.5,1v2.8h-1.2v-5.3h1.2v1c0.4-0.7,1-1.1,2-1.1C16,62.7,16.5,62.9,16.8,63.3z"/>
	<path class="st1" d="M22.1,67.4c-0.4,0.5-1,0.7-1.8,0.7c-0.4,0-0.7-0.1-1-0.2s-0.5-0.3-0.7-0.6c-0.2-0.3-0.2-0.5-0.2-0.8
		c0-0.5,0.2-0.9,0.5-1.2c0.4-0.3,0.8-0.4,1.5-0.4h1.6v-0.2c0-0.3-0.1-0.6-0.3-0.8c-0.2-0.2-0.5-0.3-0.9-0.3c-0.5,0-1,0.2-1.6,0.5
		l-0.5-0.8c0.4-0.2,0.8-0.4,1.1-0.5c0.3-0.1,0.7-0.2,1.2-0.2c0.7,0,1.2,0.2,1.6,0.5c0.4,0.3,0.6,0.8,0.6,1.4l0,3.5h-1.1V67.4z
		 M21.6,66.9c0.3-0.2,0.4-0.4,0.5-0.7v-0.5h-1.4c-0.4,0-0.7,0.1-0.8,0.2c-0.2,0.1-0.3,0.3-0.3,0.5c0,0.2,0.1,0.4,0.3,0.6
		s0.4,0.2,0.8,0.2C21,67.2,21.3,67.1,21.6,66.9z"/>
	<path class="st1" d="M24.8,68.1v-7.4H26v7.4H24.8z"/>
	<path class="st1" d="M29.1,69.7c-0.3,0.2-0.6,0.3-1,0.3c-0.2,0-0.5,0-0.7-0.1s-0.4-0.2-0.6-0.3l0.5-0.9c0.1,0.1,0.2,0.2,0.4,0.2
		S27.9,69,28,69c0.4,0,0.6-0.2,0.8-0.6L29,68l-2.2-5.2H28l1.6,4l1.5-4h1.2l-2.4,6.1C29.6,69.2,29.4,69.5,29.1,69.7z"/>
	<path class="st1" d="M34.7,68.1c-0.4,0-0.8-0.1-1.1-0.4s-0.4-0.6-0.4-1.2v-2.8h-0.8v-0.9h0.8v-1.5h1.1v1.5h1.6v0.9h-1.6v2.5
		c0,0.3,0,0.5,0.1,0.6c0.1,0.1,0.2,0.2,0.4,0.2c0.2,0,0.5-0.1,0.8-0.2l0.3,0.9C35.6,68,35.2,68.1,34.7,68.1z"/>
	<path class="st1" d="M38.1,60.7c0.1,0.1,0.2,0.3,0.2,0.5c0,0.2-0.1,0.4-0.2,0.5s-0.3,0.2-0.5,0.2c-0.2,0-0.4-0.1-0.5-0.2
		c-0.1-0.1-0.2-0.3-0.2-0.5c0-0.2,0.1-0.4,0.2-0.5s0.3-0.2,0.5-0.2C37.9,60.5,38,60.6,38.1,60.7z M37.1,68.1v-5.3h1.1v5.3H37.1z"/>
	<path class="st1" d="M43.4,62.9c0.4,0.1,0.7,0.4,0.9,0.6l-0.6,0.7c-0.4-0.4-0.9-0.6-1.5-0.6c-0.5,0-0.9,0.2-1.2,0.5
		c-0.3,0.3-0.5,0.7-0.5,1.2c0,0.5,0.1,0.9,0.4,1.2s0.7,0.5,1.1,0.5c0.7,0,1.2-0.2,1.6-0.6l0.6,0.6c-0.2,0.3-0.6,0.6-0.9,0.7
		c-0.4,0.2-0.8,0.3-1.3,0.3c-0.5,0-1-0.1-1.4-0.3c-0.4-0.2-0.7-0.5-0.9-0.9s-0.3-0.9-0.3-1.4c0-0.5,0.1-1,0.3-1.4
		c0.2-0.4,0.5-0.7,0.9-1s0.9-0.3,1.4-0.3C42.6,62.7,43,62.8,43.4,62.9z"/>
	<path class="st1" d="M48.2,62.8c0.3,0.1,0.6,0.2,0.9,0.4l-0.4,0.8c-0.2-0.1-0.5-0.3-0.8-0.3c-0.3-0.1-0.5-0.1-0.8-0.1
		c-0.2,0-0.4,0-0.6,0.1c-0.1,0.1-0.2,0.2-0.2,0.4s0.1,0.3,0.2,0.4s0.4,0.2,0.8,0.3c0.4,0.1,0.7,0.2,0.9,0.3c0.2,0.1,0.4,0.3,0.6,0.5
		c0.2,0.2,0.3,0.5,0.3,0.8c0,0.5-0.2,0.9-0.6,1.2c-0.4,0.3-0.9,0.4-1.5,0.4c-0.4,0-0.8-0.1-1.2-0.2s-0.7-0.3-1-0.5l0.4-0.8
		c0.2,0.2,0.5,0.4,0.8,0.5s0.6,0.2,0.9,0.2c0.3,0,0.5,0,0.6-0.1c0.2-0.1,0.2-0.2,0.2-0.4c0-0.1,0-0.3-0.1-0.4
		c-0.1-0.1-0.2-0.2-0.4-0.2c-0.1-0.1-0.3-0.1-0.6-0.2c-0.4-0.1-0.6-0.2-0.9-0.3c-0.2-0.1-0.4-0.3-0.6-0.5c-0.2-0.2-0.2-0.5-0.2-0.8
		c0-0.5,0.2-0.9,0.6-1.2s0.8-0.4,1.4-0.4C47.5,62.7,47.8,62.7,48.2,62.8z"/>
</g>
<g>
	<g>
		<path class="st2" d="M30.2,25.7h-3.4c-0.3,0-0.6,0.3-0.6,0.6s0.3,0.6,0.6,0.6h3.4c0.3,0,0.6-0.3,0.6-0.6S30.5,25.7,30.2,25.7z"/>
		<path class="st2" d="M46,28.5C46,28.4,46,28.4,46,28.5C46,28.4,46,28.4,46,28.5c0-0.1,0-0.1,0-0.1l0,0c0,0,0,0,0-0.1l0,0l-3.1-5.8
			V7.2c0-0.3-0.3-0.6-0.6-0.6s-0.6,0.3-0.6,0.6V22H15.3V6.3c0-0.9,0.8-1.7,1.7-1.7h22.2c0.3,0,0.6-0.3,0.6-0.6s-0.3-0.6-0.6-0.6H17
			c-1.5,0-2.8,1.3-2.8,2.8v16.1l-3.1,5.8l0,0c0,0,0,0,0,0.1l0,0c0,0,0,0,0,0.1l0,0c0,0,0,0,0,0.1c0,0,0,0,0,0.1v1.1
			c0,1.5,1.3,2.8,2.8,2.8h29.4c1.5,0,2.8-1.3,2.8-2.8L46,28.5L46,28.5L46,28.5z M15.1,23.1H42l2.6,4.8h-32L15.1,23.1z M43.2,31.3
			H13.8c-0.9,0-1.7-0.8-1.7-1.7V29h32.8v0.6C44.9,30.6,44.1,31.3,43.2,31.3z"/>
		<path class="st2" d="M42.5,1.4h1.6L30.8,14.8l-4.1-4.1c-0.2-0.2-0.6-0.2-0.8,0L16.6,20c-0.2,0.2-0.2,0.6,0,0.8
			c0.1,0.1,0.3,0.2,0.4,0.2s0.3-0.1,0.4-0.2l8.9-8.9l4.1,4.1c0.2,0.2,0.6,0.2,0.8,0L44.9,2.2v1.6c0,0.3,0.3,0.6,0.6,0.6
			s0.6-0.3,0.6-0.6v-3c0-0.3-0.3-0.6-0.6-0.6h-3c-0.3,0-0.6,0.3-0.6,0.6S42.2,1.4,42.5,1.4L42.5,1.4z"/>
	</g>
</g>
<g class="st0">
	<path class="st1" d="M104,53.9l-3.7-5v5h-1.2v-7h1.2l3.8,5v-5h1.2v7H104z"/>
	<path class="st1" d="M110.2,53.2c-0.4,0.5-1,0.7-1.8,0.7c-0.4,0-0.7-0.1-1-0.2s-0.5-0.3-0.7-0.6c-0.2-0.3-0.2-0.5-0.2-0.8
		c0-0.5,0.2-0.9,0.5-1.2c0.4-0.3,0.8-0.4,1.5-0.4h1.6v-0.2c0-0.3-0.1-0.6-0.3-0.8c-0.2-0.2-0.5-0.3-0.9-0.3c-0.5,0-1,0.2-1.6,0.5
		l-0.5-0.8c0.4-0.2,0.8-0.4,1.1-0.5c0.3-0.1,0.7-0.2,1.2-0.2c0.7,0,1.2,0.2,1.6,0.5c0.4,0.3,0.6,0.8,0.6,1.4l0,3.5h-1.1V53.2z
		 M109.7,52.7c0.3-0.2,0.4-0.4,0.5-0.7v-0.5h-1.4c-0.4,0-0.7,0.1-0.8,0.2c-0.2,0.1-0.3,0.3-0.3,0.5c0,0.2,0.1,0.4,0.3,0.6
		s0.4,0.2,0.8,0.2C109.1,53,109.4,52.9,109.7,52.7z"/>
	<path class="st1" d="M114.5,53.9c-0.4,0-0.8-0.1-1.1-0.4s-0.4-0.6-0.4-1.2v-2.8h-0.8v-0.9h0.8v-1.5h1.1v1.5h1.6v0.9h-1.6v2.5
		c0,0.3,0,0.5,0.1,0.6c0.1,0.1,0.2,0.2,0.4,0.2c0.2,0,0.5-0.1,0.8-0.2l0.3,0.9C115.4,53.8,115,53.9,114.5,53.9z"/>
	<path class="st1" d="M121.7,53.9h-1.1v-1c-0.3,0.7-1,1.1-1.9,1.1c-0.6,0-1.1-0.2-1.4-0.5c-0.3-0.4-0.5-0.9-0.5-1.5v-3.3h1.2v3
		c0,0.4,0.1,0.7,0.3,0.9c0.2,0.2,0.5,0.3,0.9,0.3c0.4,0,0.8-0.2,1.1-0.5c0.3-0.3,0.4-0.7,0.4-1.2v-2.6h1.1V53.9z"/>
	<path class="st1" d="M125.3,48.8c0.3-0.2,0.7-0.3,1.1-0.3v1.1c-0.5,0-1,0.1-1.3,0.4c-0.3,0.3-0.5,0.6-0.6,1.1v2.8h-1.2v-5.3h1.2
		v1.1C124.8,49.2,125,49,125.3,48.8z"/>
	<path class="st1" d="M130.3,53.2c-0.4,0.5-1,0.7-1.8,0.7c-0.4,0-0.7-0.1-1-0.2s-0.5-0.3-0.7-0.6c-0.2-0.3-0.2-0.5-0.2-0.8
		c0-0.5,0.2-0.9,0.5-1.2c0.4-0.3,0.8-0.4,1.5-0.4h1.6v-0.2c0-0.3-0.1-0.6-0.3-0.8c-0.2-0.2-0.5-0.3-0.9-0.3c-0.5,0-1,0.2-1.6,0.5
		l-0.5-0.8c0.4-0.2,0.8-0.4,1.1-0.5c0.3-0.1,0.7-0.2,1.2-0.2c0.7,0,1.2,0.2,1.6,0.5c0.4,0.3,0.6,0.8,0.6,1.4l0,3.5h-1.1V53.2z
		 M129.9,52.7c0.3-0.2,0.4-0.4,0.5-0.7v-0.5h-1.4c-0.4,0-0.7,0.1-0.8,0.2c-0.2,0.1-0.3,0.3-0.3,0.5c0,0.2,0.1,0.4,0.3,0.6
		s0.4,0.2,0.8,0.2C129.2,53,129.6,52.9,129.9,52.7z"/>
	<path class="st1" d="M133.1,53.9v-7.4h1.2v7.4H133.1z"/>
	<path class="st1" d="M142.8,52.8v1.1h-4.2v-7h1.2v5.9H142.8z"/>
	<path class="st1" d="M147.1,53.2c-0.4,0.5-1,0.7-1.8,0.7c-0.4,0-0.7-0.1-1-0.2s-0.5-0.3-0.7-0.6c-0.2-0.3-0.2-0.5-0.2-0.8
		c0-0.5,0.2-0.9,0.5-1.2c0.4-0.3,0.8-0.4,1.5-0.4h1.6v-0.2c0-0.3-0.1-0.6-0.3-0.8c-0.2-0.2-0.5-0.3-0.9-0.3c-0.5,0-1,0.2-1.6,0.5
		l-0.5-0.8c0.4-0.2,0.8-0.4,1.1-0.5c0.3-0.1,0.7-0.2,1.2-0.2c0.7,0,1.2,0.2,1.6,0.5c0.4,0.3,0.6,0.8,0.6,1.4l0,3.5h-1.1V53.2z
		 M146.6,52.7c0.3-0.2,0.4-0.4,0.5-0.7v-0.5h-1.4c-0.4,0-0.7,0.1-0.8,0.2c-0.2,0.1-0.3,0.3-0.3,0.5c0,0.2,0.1,0.4,0.3,0.6
		s0.4,0.2,0.8,0.2C146,53,146.3,52.9,146.6,52.7z"/>
	<path class="st1" d="M154.3,49.1c0.4,0.4,0.5,0.9,0.5,1.5v3.3h-1.2v-3c0-0.4-0.1-0.7-0.3-0.9c-0.2-0.2-0.5-0.3-0.9-0.3
		c-0.4,0-0.8,0.1-1,0.4c-0.3,0.3-0.4,0.6-0.5,1v2.8h-1.2v-5.3h1.2v1c0.4-0.7,1-1.1,2-1.1C153.5,48.5,154,48.7,154.3,49.1z"/>
	<path class="st1" d="M161.2,53.3c0,0.5-0.1,0.9-0.3,1.3c-0.2,0.4-0.5,0.7-1,0.9c-0.4,0.2-0.9,0.3-1.5,0.3c-0.8,0-1.5-0.2-2.2-0.7
		l0.5-0.8c0.3,0.2,0.5,0.3,0.8,0.4s0.6,0.1,0.9,0.1c0.5,0,0.9-0.1,1.2-0.4s0.5-0.6,0.5-1.1v-0.7c-0.2,0.3-0.4,0.5-0.7,0.7
		c-0.3,0.2-0.6,0.2-1,0.2c-0.5,0-0.9-0.1-1.3-0.3c-0.4-0.2-0.6-0.5-0.8-0.9s-0.3-0.8-0.3-1.3c0-0.5,0.1-0.9,0.3-1.3
		c0.2-0.4,0.5-0.7,0.8-0.9c0.4-0.2,0.8-0.3,1.3-0.3c0.4,0,0.7,0.1,1,0.2c0.3,0.2,0.5,0.4,0.7,0.7v-0.9h1.1V53.3z M159.6,52.2
		c0.3-0.3,0.4-0.7,0.4-1.2s-0.1-0.9-0.4-1.2c-0.3-0.3-0.7-0.5-1.1-0.5c-0.5,0-0.8,0.2-1.1,0.5c-0.3,0.3-0.4,0.7-0.4,1.2
		c0,0.5,0.2,0.9,0.4,1.2s0.7,0.5,1.1,0.5C158.9,52.7,159.3,52.6,159.6,52.2z"/>
	<path class="st1" d="M167.6,53.9h-1.1v-1c-0.3,0.7-1,1.1-1.9,1.1c-0.6,0-1.1-0.2-1.4-0.5c-0.3-0.4-0.5-0.9-0.5-1.5v-3.3h1.2v3
		c0,0.4,0.1,0.7,0.3,0.9c0.2,0.2,0.5,0.3,0.9,0.3c0.4,0,0.8-0.2,1.1-0.5c0.3-0.3,0.4-0.7,0.4-1.2v-2.6h1.1V53.9z"/>
	<path class="st1" d="M172.5,53.2c-0.4,0.5-1,0.7-1.8,0.7c-0.4,0-0.7-0.1-1-0.2s-0.5-0.3-0.7-0.6c-0.2-0.3-0.2-0.5-0.2-0.8
		c0-0.5,0.2-0.9,0.5-1.2c0.4-0.3,0.8-0.4,1.5-0.4h1.6v-0.2c0-0.3-0.1-0.6-0.3-0.8c-0.2-0.2-0.5-0.3-0.9-0.3c-0.5,0-1,0.2-1.6,0.5
		l-0.5-0.8c0.4-0.2,0.8-0.4,1.1-0.5c0.3-0.1,0.7-0.2,1.2-0.2c0.7,0,1.2,0.2,1.6,0.5c0.4,0.3,0.6,0.8,0.6,1.4l0,3.5h-1.1V53.2z
		 M172,52.7c0.3-0.2,0.4-0.4,0.5-0.7v-0.5H171c-0.4,0-0.7,0.1-0.8,0.2c-0.2,0.1-0.3,0.3-0.3,0.5c0,0.2,0.1,0.4,0.3,0.6
		c0.2,0.1,0.4,0.2,0.8,0.2C171.4,53,171.7,52.9,172,52.7z"/>
	<path class="st1" d="M180,53.3c0,0.5-0.1,0.9-0.3,1.3c-0.2,0.4-0.5,0.7-1,0.9c-0.4,0.2-0.9,0.3-1.5,0.3c-0.8,0-1.5-0.2-2.2-0.7
		l0.5-0.8c0.3,0.2,0.5,0.3,0.8,0.4s0.6,0.1,0.9,0.1c0.5,0,0.9-0.1,1.2-0.4s0.5-0.6,0.5-1.1v-0.7c-0.2,0.3-0.4,0.5-0.7,0.7
		c-0.3,0.2-0.6,0.2-1,0.2c-0.5,0-0.9-0.1-1.3-0.3c-0.4-0.2-0.6-0.5-0.8-0.9s-0.3-0.8-0.3-1.3c0-0.5,0.1-0.9,0.3-1.3
		c0.2-0.4,0.5-0.7,0.8-0.9c0.4-0.2,0.8-0.3,1.3-0.3c0.4,0,0.7,0.1,1,0.2c0.3,0.2,0.5,0.4,0.7,0.7v-0.9h1.1V53.3z M178.4,52.2
		c0.3-0.3,0.4-0.7,0.4-1.2s-0.1-0.9-0.4-1.2c-0.3-0.3-0.7-0.5-1.1-0.5c-0.5,0-0.8,0.2-1.1,0.5c-0.3,0.3-0.4,0.7-0.4,1.2
		c0,0.5,0.2,0.9,0.4,1.2s0.7,0.5,1.1,0.5C177.7,52.7,178.1,52.6,178.4,52.2z"/>
	<path class="st1" d="M185.6,49.2c0.4,0.5,0.6,1.1,0.6,2c0,0.1,0,0.2,0,0.4h-4c0.1,0.4,0.3,0.7,0.6,1s0.6,0.4,1.1,0.4
		c0.3,0,0.6-0.1,0.8-0.2c0.3-0.1,0.5-0.3,0.7-0.5L186,53c-0.3,0.3-0.6,0.5-1,0.7c-0.4,0.2-0.8,0.2-1.2,0.2c-0.5,0-1-0.1-1.4-0.3
		c-0.4-0.2-0.7-0.5-1-0.9c-0.2-0.4-0.3-0.9-0.3-1.4s0.1-1,0.3-1.4c0.2-0.4,0.5-0.7,1-1s0.9-0.3,1.4-0.3
		C184.6,48.5,185.2,48.7,185.6,49.2z M184.8,49.8c-0.3-0.2-0.6-0.4-1-0.4c-0.4,0-0.8,0.1-1,0.4c-0.3,0.2-0.4,0.6-0.5,1h3
		C185.2,50.4,185.1,50,184.8,49.8z"/>
</g>
<g class="st0">
	<path class="st1" d="M122.6,61.7c0.5,0.4,0.7,1,0.7,1.8c0,0.8-0.2,1.4-0.7,1.8s-1.2,0.7-2,0.7h-1.6v2.1h-1.2v-7h2.8
		C121.4,61.1,122.1,61.3,122.6,61.7z M118.9,64.9h1.6c0.5,0,1-0.1,1.3-0.4s0.4-0.6,0.4-1.1c0-0.5-0.1-0.8-0.4-1s-0.7-0.3-1.3-0.3
		h-1.6V64.9z"/>
	<path class="st1" d="M126.3,63c0.3-0.2,0.7-0.3,1.1-0.3v1.1c-0.5,0-1,0.1-1.3,0.4c-0.3,0.3-0.5,0.6-0.6,1.1v2.8h-1.2v-5.3h1.2v1.1
		C125.7,63.4,126,63.2,126.3,63z"/>
	<path class="st1" d="M132,63c0.4,0.2,0.7,0.5,1,0.9c0.2,0.4,0.3,0.9,0.3,1.4c0,0.5-0.1,1-0.3,1.4s-0.6,0.7-1,1
		c-0.4,0.2-0.9,0.3-1.4,0.3c-0.5,0-1-0.1-1.5-0.3c-0.4-0.2-0.7-0.5-1-1s-0.3-0.9-0.3-1.4c0-0.5,0.1-1,0.3-1.4c0.2-0.4,0.6-0.7,1-0.9
		s0.9-0.3,1.5-0.3C131.1,62.7,131.6,62.8,132,63z M129.4,64.2c-0.3,0.3-0.5,0.7-0.5,1.2c0,0.5,0.2,0.9,0.5,1.3
		c0.3,0.3,0.7,0.5,1.2,0.5s0.9-0.2,1.2-0.5c0.3-0.3,0.5-0.7,0.5-1.3c0-0.5-0.2-0.9-0.5-1.2s-0.7-0.5-1.2-0.5
		C130.1,63.7,129.7,63.9,129.4,64.2z"/>
	<path class="st1" d="M138,62.9c0.4,0.1,0.7,0.4,0.9,0.6l-0.6,0.7c-0.4-0.4-0.9-0.6-1.5-0.6c-0.5,0-0.9,0.2-1.2,0.5
		c-0.3,0.3-0.5,0.7-0.5,1.2c0,0.5,0.1,0.9,0.4,1.2s0.7,0.5,1.1,0.5c0.7,0,1.2-0.2,1.6-0.6l0.6,0.6c-0.2,0.3-0.6,0.6-0.9,0.7
		c-0.4,0.2-0.8,0.3-1.3,0.3c-0.5,0-1-0.1-1.4-0.3c-0.4-0.2-0.7-0.5-0.9-0.9s-0.3-0.9-0.3-1.4c0-0.5,0.1-1,0.3-1.4
		c0.2-0.4,0.5-0.7,0.9-1s0.9-0.3,1.4-0.3C137.2,62.7,137.6,62.8,138,62.9z"/>
	<path class="st1" d="M144.1,63.4c0.4,0.5,0.6,1.1,0.6,2c0,0.1,0,0.2,0,0.4h-4c0.1,0.4,0.3,0.7,0.6,1s0.6,0.4,1.1,0.4
		c0.3,0,0.6-0.1,0.8-0.2s0.5-0.3,0.7-0.5l0.6,0.6c-0.3,0.3-0.6,0.5-1,0.7s-0.8,0.2-1.2,0.2c-0.5,0-1-0.1-1.4-0.3
		c-0.4-0.2-0.7-0.5-1-0.9s-0.3-0.9-0.3-1.4s0.1-1,0.3-1.4c0.2-0.4,0.5-0.7,1-1s0.9-0.3,1.4-0.3C143,62.7,143.7,62.9,144.1,63.4z
		 M143.3,64c-0.3-0.2-0.6-0.4-1-0.4c-0.4,0-0.8,0.1-1,0.4c-0.3,0.2-0.4,0.6-0.5,1h3C143.7,64.6,143.5,64.2,143.3,64z"/>
	<path class="st1" d="M148.5,62.8c0.3,0.1,0.6,0.2,0.9,0.4l-0.4,0.8c-0.2-0.1-0.5-0.3-0.8-0.3c-0.3-0.1-0.5-0.1-0.8-0.1
		c-0.2,0-0.4,0-0.6,0.1c-0.1,0.1-0.2,0.2-0.2,0.4s0.1,0.3,0.2,0.4c0.2,0.1,0.4,0.2,0.8,0.3c0.4,0.1,0.7,0.2,0.9,0.3
		c0.2,0.1,0.4,0.3,0.6,0.5c0.2,0.2,0.3,0.5,0.3,0.8c0,0.5-0.2,0.9-0.6,1.2c-0.4,0.3-0.9,0.4-1.5,0.4c-0.4,0-0.8-0.1-1.2-0.2
		c-0.4-0.1-0.7-0.3-1-0.5l0.4-0.8c0.2,0.2,0.5,0.4,0.8,0.5c0.3,0.1,0.6,0.2,0.9,0.2c0.3,0,0.5,0,0.6-0.1c0.2-0.1,0.2-0.2,0.2-0.4
		c0-0.1,0-0.3-0.1-0.4c-0.1-0.1-0.2-0.2-0.4-0.2c-0.1-0.1-0.3-0.1-0.6-0.2c-0.4-0.1-0.6-0.2-0.9-0.3c-0.2-0.1-0.4-0.3-0.6-0.5
		c-0.2-0.2-0.2-0.5-0.2-0.8c0-0.5,0.2-0.9,0.6-1.2c0.4-0.3,0.8-0.4,1.4-0.4C147.8,62.7,148.1,62.7,148.5,62.8z"/>
	<path class="st1" d="M153.2,62.8c0.3,0.1,0.6,0.2,0.9,0.4l-0.4,0.8c-0.2-0.1-0.5-0.3-0.8-0.3c-0.3-0.1-0.5-0.1-0.8-0.1
		c-0.2,0-0.4,0-0.6,0.1c-0.1,0.1-0.2,0.2-0.2,0.4s0.1,0.3,0.2,0.4c0.2,0.1,0.4,0.2,0.8,0.3c0.4,0.1,0.7,0.2,0.9,0.3
		c0.2,0.1,0.4,0.3,0.6,0.5c0.2,0.2,0.3,0.5,0.3,0.8c0,0.5-0.2,0.9-0.6,1.2c-0.4,0.3-0.9,0.4-1.5,0.4c-0.4,0-0.8-0.1-1.2-0.2
		c-0.4-0.1-0.7-0.3-1-0.5l0.4-0.8c0.2,0.2,0.5,0.4,0.8,0.5c0.3,0.1,0.6,0.2,0.9,0.2c0.3,0,0.5,0,0.6-0.1c0.2-0.1,0.2-0.2,0.2-0.4
		c0-0.1,0-0.3-0.1-0.4c-0.1-0.1-0.2-0.2-0.4-0.2c-0.1-0.1-0.3-0.1-0.6-0.2c-0.4-0.1-0.6-0.2-0.9-0.3c-0.2-0.1-0.4-0.3-0.6-0.5
		c-0.2-0.2-0.2-0.5-0.2-0.8c0-0.5,0.2-0.9,0.6-1.2c0.4-0.3,0.8-0.4,1.4-0.4C152.5,62.7,152.8,62.7,153.2,62.8z"/>
	<path class="st1" d="M156.3,60.7c0.1,0.1,0.2,0.3,0.2,0.5c0,0.2-0.1,0.4-0.2,0.5s-0.3,0.2-0.5,0.2c-0.2,0-0.4-0.1-0.5-0.2
		c-0.1-0.1-0.2-0.3-0.2-0.5c0-0.2,0.1-0.4,0.2-0.5s0.3-0.2,0.5-0.2C156,60.5,156.2,60.6,156.3,60.7z M155.3,68.1v-5.3h1.1v5.3H155.3
		z"/>
	<path class="st1" d="M162.7,63.3c0.4,0.4,0.5,0.9,0.5,1.5v3.3h-1.2v-3c0-0.4-0.1-0.7-0.3-0.9c-0.2-0.2-0.5-0.3-0.9-0.3
		c-0.4,0-0.8,0.1-1,0.4c-0.3,0.3-0.4,0.6-0.5,1v2.8h-1.2v-5.3h1.2v1c0.4-0.7,1-1.1,2-1.1C161.8,62.7,162.3,62.9,162.7,63.3z"/>
	<path class="st1" d="M169.5,67.6c0,0.5-0.1,0.9-0.3,1.3c-0.2,0.4-0.5,0.7-1,0.9c-0.4,0.2-0.9,0.3-1.5,0.3c-0.8,0-1.5-0.2-2.2-0.7
		l0.5-0.8c0.3,0.2,0.5,0.3,0.8,0.4s0.6,0.1,0.9,0.1c0.5,0,0.9-0.1,1.2-0.4s0.5-0.6,0.5-1.1v-0.7c-0.2,0.3-0.4,0.5-0.7,0.7
		c-0.3,0.2-0.6,0.2-1,0.2c-0.5,0-0.9-0.1-1.3-0.3c-0.4-0.2-0.6-0.5-0.8-0.9s-0.3-0.8-0.3-1.3c0-0.5,0.1-0.9,0.3-1.3
		c0.2-0.4,0.5-0.7,0.8-0.9c0.4-0.2,0.8-0.3,1.3-0.3c0.4,0,0.7,0.1,1,0.2c0.3,0.2,0.5,0.4,0.7,0.7v-0.9h1.1V67.6z M168,66.4
		c0.3-0.3,0.4-0.7,0.4-1.2s-0.1-0.9-0.4-1.2c-0.3-0.3-0.7-0.5-1.1-0.5c-0.5,0-0.8,0.2-1.1,0.5c-0.3,0.3-0.4,0.7-0.4,1.2
		c0,0.5,0.2,0.9,0.4,1.2s0.7,0.5,1.1,0.5C167.3,66.9,167.7,66.8,168,66.4z"/>
</g>
<g>
	<g>
		<g>
			<g>
				<path class="st2" d="M140.1,29.8l-2-1c1.4-0.4,2.2-0.9,2.7-1.2c0.4-0.3,0.6-0.8,0.4-1.3c-0.4-1-0.9-2.8-0.9-4.9
					c0-2.8-2.2-5.2-4.9-5.5c-0.3,0-0.7,0-1,0c-2.8,0.3-4.9,2.7-4.9,5.5c0,2-0.5,3.9-0.9,4.9c-0.2,0.5,0,1,0.4,1.3s1.3,0.8,2.7,1.2
					l-2,1c-0.7,0.4-1.2,1.1-1.2,1.9v3.4c0,0.3,0.2,0.5,0.5,0.5s0.5-0.2,0.5-0.5v-3.4c0-0.4,0.2-0.8,0.6-1l1.6-0.8
					c0.7,1.1,1.9,1.9,3.3,1.9c1.4,0,2.6-0.7,3.3-1.9l1.6,0.8c0.4,0.2,0.6,0.6,0.6,1v3.4c0,0.3,0.2,0.5,0.5,0.5s0.5-0.2,0.5-0.5v-3.4
					C141.3,31,140.8,30.2,140.1,29.8z M134.7,30.8c-1,0-1.8-0.5-2.4-1.3l0.3-0.2c0.5-0.3,0.9-0.8,0.9-1.4v-0.6
					c0.4,0.1,0.7,0.2,1.1,0.2c0.4,0,0.8-0.1,1.1-0.2v0.6c0,0.6,0.3,1.2,0.9,1.4l0.3,0.2C136.6,30.3,135.7,30.8,134.7,30.8z
					 M136.9,28c0-0.1,0-0.1,0-0.2v-1c0.7-0.4,1.2-0.9,1.6-1.6c0.7-1.3,0.5-2.9-0.6-3.9c-0.8-0.7-2.1-1.5-4.3-1.5
					c-0.1,0-0.3,0.1-0.4,0.2l-1.1,1.1c-0.2,0.2-0.2,0.5,0,0.7s0.5,0.2,0.7,0l0.9-0.9c1.4,0,2.5,0.5,3.4,1.2c0.7,0.7,0.9,1.8,0.4,2.6
					c-0.6,1-1.7,1.7-2.9,1.7c-1.8,0-3.3-1.5-3.3-3.3c0-0.3-0.2-0.5-0.5-0.5s-0.5,0.2-0.5,0.5c0,1.6,0.9,3,2.2,3.8v1
					c0,0.1,0,0.1,0,0.2c-1.7-0.4-2.7-0.9-3.2-1.3l0,0c0.4-1.1,1-3.1,1-5.3c0-2.3,1.8-4.3,4-4.5c0.3,0,0.6,0,0.8,0
					c2.2,0.2,4,2.2,4,4.5c0,2.2,0.5,4.2,1,5.3l0,0C139.7,27.1,138.6,27.7,136.9,28z"/>
			</g>
		</g>
		<g>
			<g>
				<path class="st2" d="M130.9,32.4c-0.3,0-0.5,0.2-0.5,0.5v2.2c0,0.3,0.2,0.5,0.5,0.5s0.5-0.2,0.5-0.5v-2.2
					C131.4,32.7,131.2,32.4,130.9,32.4z"/>
			</g>
		</g>
		<g>
			<g>
				<path class="st2" d="M138.6,32.4c-0.3,0-0.5,0.2-0.5,0.5v2.2c0,0.3,0.2,0.5,0.5,0.5s0.5-0.2,0.5-0.5v-2.2
					C139.1,32.7,138.9,32.4,138.6,32.4z"/>
			</g>
		</g>
		<g>
			<g>
				<path class="st2" d="M158.6,20.5c-0.1,0-1.9-1.2-4.8-0.6c-0.2,0-0.4,0.3-0.4,0.5v0.5c0,0.3,0.2,0.5,0.5,0.5s0.5-0.2,0.5-0.5
					v-0.1c1.1-0.2,2,0,2.5,0.1c0.7,0.2,1.1,0.4,1.1,0.4c0.1,0.1,0.2,0.1,0.3,0.1c0.2,0,0.3-0.1,0.4-0.2
					C158.9,20.9,158.8,20.6,158.6,20.5z"/>
			</g>
		</g>
		<g>
			<g>
				<path class="st2" d="M161.8,29.3l-2.6-1c-0.2-0.1-0.4-0.3-0.4-0.5v-1.3c0.1-0.1,0.2-0.2,0.3-0.3c0.9-0.8,1.3-1.9,1.3-3.1v-1
					l0.1-0.3c0.3-0.5,0.4-1.1,0.4-1.7V17c0-0.3-0.2-0.5-0.5-0.5h-5.7c-2,0-3.6,1.6-3.6,3.6c0,0.6,0.1,1.2,0.4,1.7l0.1,0.3v0.8
					c0,1.4,0.6,2.7,1.6,3.5v1.4c0,0.2-0.2,0.5-0.4,0.5l-2.6,1c-0.8,0.3-1.4,1.1-1.4,2v3.8c0,0.3,0.2,0.5,0.5,0.5s0.5-0.2,0.5-0.5
					v-3.8c0-0.5,0.3-0.9,0.7-1.1l2.6-1c0.1-0.1,0.3-0.1,0.4-0.2l1.8,1.4v4.7c0,0.3,0.2,0.5,0.5,0.5s0.5-0.2,0.5-0.5v-4.7l1.8-1.4
					c0.1,0.1,0.2,0.2,0.4,0.2l2.6,1c0.4,0.2,0.7,0.6,0.7,1.1v3.8c0,0.3,0.2,0.5,0.5,0.5s0.5-0.2,0.5-0.5v-3.8
					C163.2,30.5,162.6,29.6,161.8,29.3z M156.1,29.6l-1.7-1.3c0-0.1,0.1-0.3,0.1-0.5v-0.7c0.5,0.2,1,0.3,1.5,0.4h0.1
					c0.6,0,1.2-0.1,1.7-0.3v0.7c0,0.2,0,0.3,0.1,0.5L156.1,29.6z M158.4,25.5c-0.7,0.6-1.5,1-2.4,0.9c-1.8-0.1-3.2-1.6-3.2-3.5V22
					c0-0.1,0-0.2-0.1-0.2l-0.2-0.4c-0.2-0.4-0.3-0.8-0.3-1.2c0-1.4,1.1-2.5,2.5-2.5h5.2v2.5c0,0.4-0.1,0.9-0.3,1.2l-0.2,0.4
					c0,0.1-0.1,0.1-0.1,0.2v1.1C159.4,24,159.1,24.8,158.4,25.5z"/>
			</g>
		</g>
		<g>
			<g>
				<path class="st2" d="M152.3,31.9c-0.3,0-0.5,0.2-0.5,0.5v2.7c0,0.3,0.2,0.5,0.5,0.5s0.5-0.2,0.5-0.5v-2.7
					C152.8,32.1,152.6,31.9,152.3,31.9z"/>
			</g>
		</g>
		<g>
			<g>
				<path class="st2" d="M159.9,31.9c-0.3,0-0.5,0.2-0.5,0.5v2.7c0,0.3,0.2,0.5,0.5,0.5s0.5-0.2,0.5-0.5v-2.7
					C160.5,32.1,160.2,31.9,159.9,31.9z"/>
			</g>
		</g>
		<g>
			<g>
				<path class="st2" d="M153.4,2.8L153.4,2.8L153.4,2.8c0-1.2-1-2.2-2.2-2.2h-15.3c-1.2,0-2.2,1-2.2,2.2v8.8c0,1.2,1,2.2,2.2,2.2
					h2.2l0,0c0,1.2,1,2.2,2.2,2.2h0.4l-0.2,0.8c-0.1,0.3,0,0.7,0.3,0.8c0.1,0.1,0.3,0.1,0.4,0.1c0.2,0,0.3-0.1,0.5-0.2l2.3-1.7h0.5
					l4.3,2.9c0.1,0.1,0.3,0.1,0.4,0.1c0.1,0,0.3,0,0.4-0.1c0.3-0.2,0.4-0.5,0.3-0.8l-0.3-2.1h3.8c1.2,0,2.2-1,2.2-2.2V5
					C155.5,3.8,154.6,2.8,153.4,2.8z M140.9,14.9h-0.7c-0.6,0-1.1-0.5-1.1-1.1l0,0h2.1L140.9,14.9z M141.6,16.4l0.8-3
					c0-0.2,0-0.3-0.1-0.4c-0.1-0.1-0.2-0.2-0.4-0.2h-6c-0.6,0-1.1-0.5-1.1-1.1V2.8c0-0.6,0.5-1.1,1.1-1.1h15.3
					c0.6,0,1.1,0.5,1.1,1.1v8.8c0,0.6-0.5,1.1-1.1,1.1h-4.4c-0.1,0-0.2,0-0.3,0.1L141.6,16.4z M154.5,13.8c0,0.6-0.5,1.1-1.1,1.1
					H149c-0.2,0-0.3,0.1-0.4,0.2c-0.1,0.1-0.1,0.3-0.1,0.4l0.4,2.1l-3.8-2.5l1.9-1.4h4.2c1.2,0,2.2-1,2.2-2.2V3.9l0,0
					c0.6,0,1.1,0.5,1.1,1.1L154.5,13.8L154.5,13.8z"/>
			</g>
		</g>
		<g>
			<g>
				<path class="st2" d="M139.7,3.9H138c-0.3,0-0.5,0.2-0.5,0.5S137.7,5,138,5h1.6c0.3,0,0.5-0.2,0.5-0.5S140,3.9,139.7,3.9z"/>
			</g>
		</g>
		<g>
			<g>
				<path class="st2" d="M149,3.9h-7.1c-0.3,0-0.5,0.2-0.5,0.5s0.2,0.5,0.5,0.5h7.1c0.3,0,0.5-0.2,0.5-0.5S149.3,3.9,149,3.9z"/>
			</g>
		</g>
		<g>
			<g>
				<path class="st2" d="M149,6.7h-11c-0.3,0-0.5,0.2-0.5,0.5s0.2,0.5,0.5,0.5h11c0.3,0,0.5-0.2,0.5-0.5S149.3,6.7,149,6.7z"/>
			</g>
		</g>
		<g>
			<g>
				<path class="st2" d="M145.2,9.4H138c-0.3,0-0.5,0.2-0.5,0.5s0.2,0.5,0.5,0.5h7.1c0.3,0,0.5-0.2,0.5-0.5S145.4,9.4,145.2,9.4z"/>
			</g>
		</g>
		<g>
			<g>
				<path class="st2" d="M149,9.4h-1.6c-0.3,0-0.5,0.2-0.5,0.5s0.2,0.5,0.5,0.5h1.6c0.3,0,0.5-0.2,0.5-0.5S149.3,9.4,149,9.4z"/>
			</g>
		</g>
	</g>
</g>
<g class="st0">
	<path class="st1" d="M254.9,47.9v5.9h-1.2v-5.9h-2.2v-1.1h5.6v1.1H254.9z"/>
	<path class="st1" d="M261.5,49.2c0.4,0.5,0.6,1.1,0.6,2c0,0.1,0,0.2,0,0.4h-4c0.1,0.4,0.3,0.7,0.6,1s0.6,0.4,1.1,0.4
		c0.3,0,0.6-0.1,0.8-0.2c0.3-0.1,0.5-0.3,0.7-0.5l0.6,0.6c-0.3,0.3-0.6,0.5-1,0.7c-0.4,0.2-0.8,0.2-1.2,0.2c-0.5,0-1-0.1-1.4-0.3
		c-0.4-0.2-0.7-0.5-1-0.9c-0.2-0.4-0.3-0.9-0.3-1.4s0.1-1,0.3-1.4c0.2-0.4,0.5-0.7,1-1s0.9-0.3,1.4-0.3
		C260.4,48.5,261.1,48.7,261.5,49.2z M260.6,49.8c-0.3-0.2-0.6-0.4-1-0.4c-0.4,0-0.8,0.1-1,0.4c-0.3,0.2-0.4,0.6-0.5,1h3
		C261.1,50.4,260.9,50,260.6,49.8z"/>
	<path class="st1" d="M266.1,48.5h1.3l-1.7,2.6l1.8,2.7h-1.3l-1.3-1.9l-1.4,1.9h-1.3l1.9-2.7l-1.8-2.6h1.3l1.2,1.8L266.1,48.5z"/>
	<path class="st1" d="M270.2,53.9c-0.4,0-0.8-0.1-1.1-0.4c-0.3-0.3-0.4-0.6-0.4-1.2v-2.8H268v-0.9h0.8v-1.5h1.1v1.5h1.6v0.9h-1.6
		v2.5c0,0.3,0,0.5,0.1,0.6c0.1,0.1,0.2,0.2,0.4,0.2c0.2,0,0.5-0.1,0.8-0.2l0.3,0.9C271.1,53.8,270.6,53.9,270.2,53.9z"/>
</g>
<g class="st0">
	<path class="st1" d="M240.4,66.5l-0.7,1.6h-1.2l3.1-7h1.2l3.1,7h-1.3l-0.7-1.6H240.4z M242.1,62.3l-1.3,3.1h2.6L242.1,62.3z"/>
	<path class="st1" d="M251.2,63.3c0.4,0.4,0.5,0.9,0.5,1.5v3.3h-1.2v-3c0-0.4-0.1-0.7-0.3-0.9c-0.2-0.2-0.5-0.3-0.9-0.3
		c-0.4,0-0.8,0.1-1,0.4c-0.3,0.3-0.4,0.6-0.5,1v2.8h-1.2v-5.3h1.2v1c0.4-0.7,1-1.1,2-1.1C250.4,62.7,250.9,62.9,251.2,63.3z"/>
	<path class="st1" d="M256.5,67.4c-0.4,0.5-1,0.7-1.8,0.7c-0.4,0-0.7-0.1-1-0.2s-0.5-0.3-0.7-0.6c-0.2-0.3-0.2-0.5-0.2-0.8
		c0-0.5,0.2-0.9,0.5-1.2c0.4-0.3,0.8-0.4,1.5-0.4h1.6v-0.2c0-0.3-0.1-0.6-0.3-0.8c-0.2-0.2-0.5-0.3-0.9-0.3c-0.5,0-1,0.2-1.6,0.5
		l-0.5-0.8c0.4-0.2,0.8-0.4,1.1-0.5c0.3-0.1,0.7-0.2,1.2-0.2c0.7,0,1.2,0.2,1.6,0.5c0.4,0.3,0.6,0.8,0.6,1.4l0,3.5h-1.1V67.4z
		 M256,66.9c0.3-0.2,0.4-0.4,0.5-0.7v-0.5H255c-0.4,0-0.7,0.1-0.8,0.2c-0.2,0.1-0.3,0.3-0.3,0.5c0,0.2,0.1,0.4,0.3,0.6
		c0.2,0.1,0.4,0.2,0.8,0.2C255.4,67.2,255.7,67.1,256,66.9z"/>
	<path class="st1" d="M259.2,68.1v-7.4h1.2v7.4H259.2z"/>
	<path class="st1" d="M263.5,69.7c-0.3,0.2-0.6,0.3-1,0.3c-0.2,0-0.5,0-0.7-0.1c-0.2-0.1-0.4-0.2-0.6-0.3l0.5-0.9
		c0.1,0.1,0.2,0.2,0.4,0.2s0.2,0.1,0.3,0.1c0.4,0,0.6-0.2,0.8-0.6l0.2-0.4l-2.2-5.2h1.2l1.6,4l1.5-4h1.2l-2.4,6.1
		C264,69.2,263.8,69.5,263.5,69.7z"/>
	<path class="st1" d="M269.1,68.1c-0.4,0-0.8-0.1-1.1-0.4c-0.3-0.3-0.4-0.6-0.4-1.2v-2.8h-0.8v-0.9h0.8v-1.5h1.1v1.5h1.6v0.9h-1.6
		v2.5c0,0.3,0,0.5,0.1,0.6c0.1,0.1,0.2,0.2,0.4,0.2c0.2,0,0.5-0.1,0.8-0.2l0.3,0.9C270,68,269.6,68.1,269.1,68.1z"/>
	<path class="st1" d="M272.5,60.7c0.1,0.1,0.2,0.3,0.2,0.5c0,0.2-0.1,0.4-0.2,0.5s-0.3,0.2-0.5,0.2c-0.2,0-0.4-0.1-0.5-0.2
		c-0.1-0.1-0.2-0.3-0.2-0.5c0-0.2,0.1-0.4,0.2-0.5s0.3-0.2,0.5-0.2C272.3,60.5,272.4,60.6,272.5,60.7z M271.5,68.1v-5.3h1.1v5.3
		H271.5z"/>
	<path class="st1" d="M277.8,62.9c0.4,0.1,0.7,0.4,0.9,0.6l-0.6,0.7c-0.4-0.4-0.9-0.6-1.5-0.6c-0.5,0-0.9,0.2-1.2,0.5
		c-0.3,0.3-0.5,0.7-0.5,1.2c0,0.5,0.1,0.9,0.4,1.2c0.3,0.3,0.7,0.5,1.1,0.5c0.7,0,1.2-0.2,1.6-0.6l0.6,0.6c-0.2,0.3-0.6,0.6-0.9,0.7
		c-0.4,0.2-0.8,0.3-1.3,0.3c-0.5,0-1-0.1-1.4-0.3c-0.4-0.2-0.7-0.5-0.9-0.9c-0.2-0.4-0.3-0.9-0.3-1.4c0-0.5,0.1-1,0.3-1.4
		c0.2-0.4,0.5-0.7,0.9-1c0.4-0.2,0.9-0.3,1.4-0.3C277,62.7,277.4,62.8,277.8,62.9z"/>
	<path class="st1" d="M282.6,62.8c0.3,0.1,0.6,0.2,0.9,0.4l-0.4,0.8c-0.2-0.1-0.5-0.3-0.8-0.3c-0.3-0.1-0.5-0.1-0.8-0.1
		c-0.2,0-0.4,0-0.6,0.1c-0.1,0.1-0.2,0.2-0.2,0.4s0.1,0.3,0.2,0.4c0.2,0.1,0.4,0.2,0.8,0.3c0.4,0.1,0.7,0.2,0.9,0.3
		c0.2,0.1,0.4,0.3,0.6,0.5c0.2,0.2,0.3,0.5,0.3,0.8c0,0.5-0.2,0.9-0.6,1.2c-0.4,0.3-0.9,0.4-1.5,0.4c-0.4,0-0.8-0.1-1.2-0.2
		c-0.4-0.1-0.7-0.3-1-0.5l0.4-0.8c0.2,0.2,0.5,0.4,0.8,0.5c0.3,0.1,0.6,0.2,0.9,0.2c0.3,0,0.5,0,0.6-0.1c0.2-0.1,0.2-0.2,0.2-0.4
		c0-0.1,0-0.3-0.1-0.4c-0.1-0.1-0.2-0.2-0.4-0.2c-0.1-0.1-0.3-0.1-0.6-0.2c-0.4-0.1-0.6-0.2-0.9-0.3c-0.2-0.1-0.4-0.3-0.6-0.5
		c-0.2-0.2-0.2-0.5-0.2-0.8c0-0.5,0.2-0.9,0.6-1.2c0.4-0.3,0.8-0.4,1.4-0.4C281.9,62.7,282.2,62.7,282.6,62.8z"/>
</g>
<g>
	<g>
		<path class="st2" d="M267.7,24.8c-0.3-0.1-0.6,0.1-0.7,0.5l-0.7,3h-19.5l1.8-8h14.9c0.3,0,0.6-0.3,0.6-0.6c0-0.3-0.3-0.6-0.6-0.6
			h-14.9l-1.8-8h19.5l0.9,3.8c0.1,0.3,0.4,0.5,0.7,0.5c0.3-0.1,0.5-0.4,0.5-0.7l-1-4.2l2.1-9.1c0-0.2,0-0.4-0.1-0.5
			s-0.3-0.2-0.5-0.2h-20.7c-0.3,0-0.5,0.2-0.6,0.5l-2.1,9.2c0,0.1,0,0.2,0,0.3l2.1,9.1l-2.1,9.1c0,0.2,0,0.4,0.1,0.5
			s0.3,0.2,0.5,0.2h20.7c0.3,0,0.5-0.2,0.6-0.5l0.8-3.5C268.2,25.1,268,24.8,267.7,24.8L267.7,24.8z M248.6,1.9h19.5l-1.8,8h-19.5
			L248.6,1.9z"/>
		<path class="st2" d="M250.4,5h10.3c0.3,0,0.6-0.3,0.6-0.6c0-0.3-0.3-0.6-0.6-0.6h-10.3c-0.3,0-0.6,0.3-0.6,0.6
			C249.8,4.7,250.1,5,250.4,5L250.4,5z"/>
		<path class="st2" d="M249.4,7.9h10.3c0.3,0,0.6-0.3,0.6-0.6c0-0.3-0.3-0.6-0.6-0.6h-10.3c-0.3,0-0.6,0.3-0.6,0.6
			C248.8,7.6,249,7.9,249.4,7.9L249.4,7.9z"/>
		<path class="st2" d="M261.4,22.8c0-0.3-0.3-0.6-0.6-0.6h-10.3c-0.3,0-0.6,0.3-0.6,0.6c0,0.3,0.3,0.6,0.6,0.6h10.3
			C261.1,23.4,261.4,23.1,261.4,22.8L261.4,22.8z"/>
		<path class="st2" d="M249.4,25.1c-0.3,0-0.6,0.3-0.6,0.6c0,0.3,0.3,0.6,0.6,0.6h10.3c0.3,0,0.6-0.3,0.6-0.6c0-0.3-0.3-0.6-0.6-0.6
			H249.4z"/>
		<path class="st2" d="M260.3,13.6c0-0.3-0.3-0.6-0.6-0.6h-10.3c-0.3,0-0.6,0.3-0.6,0.6s0.3,0.6,0.6,0.6h10.3
			C260,14.2,260.3,13.9,260.3,13.6L260.3,13.6z"/>
		<path class="st2" d="M250.4,17.1h10.3c0.3,0,0.6-0.3,0.6-0.6c0-0.3-0.3-0.6-0.6-0.6h-10.3c-0.3,0-0.6,0.3-0.6,0.6
			C249.8,16.8,250.1,17.1,250.4,17.1L250.4,17.1z"/>
		<path class="st2" d="M262.7,5.6c0,0.2,0.2,0.4,0.4,0.5c0.1,0,0.1,0,0.2,0s0.3-0.1,0.4-0.2l2-1.8c0.2-0.2,0.3-0.6,0.1-0.8
			c-0.2-0.2-0.6-0.3-0.8-0.1l-1.3,1.1V4.1c-0.1-0.3-0.4-0.5-0.7-0.5c-0.3,0.1-0.5,0.4-0.5,0.7L262.7,5.6z"/>
		<path class="st2" d="M263.3,15.4C263.4,15.4,263.4,15.4,263.3,15.4c0.3,0,0.5-0.2,0.6-0.4l1-2.5c0.1-0.3,0-0.7-0.3-0.8
			s-0.7,0-0.8,0.3l-0.6,1.6l-0.1-0.1c-0.2-0.3-0.6-0.3-0.8-0.1c-0.3,0.2-0.3,0.6-0.1,0.8l0.8,1C263,15.3,263.1,15.4,263.3,15.4
			L263.3,15.4z"/>
		<path class="st2" d="M263.4,18.3c0.1,0.1,0.3,0.2,0.5,0.2h0.1c0.2,0,0.4-0.2,0.5-0.4l1-2.5c0.1-0.3,0-0.7-0.3-0.8s-0.7,0-0.8,0.3
			l-0.6,1.6l-0.1-0.1c-0.2-0.3-0.6-0.3-0.8-0.1c-0.3,0.2-0.3,0.6-0.1,0.8L263.4,18.3z"/>
		<path class="st2" d="M280.2,11.9l-3.1-3.3c-0.1-0.1-0.3-0.2-0.4-0.2c-0.2,0-0.3,0.1-0.4,0.2l-11.5,10.8c-0.1,0.1-0.1,0.2-0.2,0.3
			l-1.4,4.4c-0.1,0.2,0,0.4,0.1,0.6c0.1,0.1,0.3,0.2,0.4,0.2h0.1l4.5-1.2c0.1,0,0.2-0.1,0.3-0.1l11.5-10.8
			C280.4,12.5,280.5,12.1,280.2,11.9L280.2,11.9z M264.7,23.4l0.8-2.4l1.7,1.8L264.7,23.4z M268.3,22.2l-2.2-2.4l10.6-10l2.2,2.4
			L268.3,22.2z"/>
	</g>
</g>
</svg>
