<?xml version="1.0" encoding="utf-8"?>
<!-- Generator: Adobe Illustrator 23.0.1, SVG Export Plug-In . SVG Version: 6.00 Build 0)  -->
<svg version="1.1" id="Layer_1" xmlns="http://www.w3.org/2000/svg" xmlns:xlink="http://www.w3.org/1999/xlink" x="0px" y="0px"
	 viewBox="0 0 294.2 30" style="enable-background:new 0 0 294.2 30;" xml:space="preserve">
<style type="text/css">
	.st0{fill:#53C8EA;}
</style>
<path class="st0" d="M90.5,0.8c-7.8,0-14.2,6.4-14.2,14.2c0,7.8,6.3,14.2,14.1,14.2c8,0,14.3-6.2,14.3-14
	C104.6,7.3,98.3,0.8,90.5,0.8z M97.2,21.6c-1.5,0.1-2.5-0.8-2.9-2.6c-0.1-0.4,0.2-1.3-0.6-1.2c-0.8,0.1-1.5-0.6-2.4,0.3
	c-2.7,2.6-5.1,2.2-6.7-1.1c-0.2-0.5-0.4-0.8-0.9-0.9c-0.8-0.1-0.6-0.7-0.6-1.2c0-0.7,0.6-0.6,1-0.6c0.4,0,0.8,0,1.2-0.1
	c0.9-0.2,1.5-0.8,1.2-1.8c-0.2-0.8-0.8-1.4-1.8-1.2c-0.2,0.1-0.4,0.2-0.6,0.2c-0.6-0.1-0.9-0.5-1-1c-0.1-0.6,0.5-0.7,0.9-0.9
	c1.5-0.6,3.2,0,4,1.4c0.8,1.3,0.5,2.9-0.6,4.1c-0.4,0.4-1.4,0.4-0.9,1.4c0.4,0.8,1,1.3,1.9,1.3c0.9,0,1.4-0.4,1.7-1.2
	c0.4-1.1,0.3-2.2,0.3-3.2c0-0.7,0.1-1.2,1-1.2c0.9,0,0.8,0.6,0.8,1.2c0.1,1-0.4,2.5,1.1,2.5c1.4,0,0.9-1.6,1-2.5c0.1-1,0-2,0-2.9
	c0-0.6,0.2-1,0.9-1c0.7,0,0.8,0.4,0.8,1c0,1.3,0,2.5,0,3.8c0,1-0.1,2.1,0,3.1c0.1,1-0.3,2.4,1.6,2.5c0.4,0,0.8,0.7,0.7,1.3
	C98.2,21.6,97.6,21.5,97.2,21.6z"/>
<g>
	<path class="st0" d="M52.5,11.7c-0.5,1.5-0.9,2.6-1.3,3.8c-0.1,0.2-0.1,0.4-0.1,0.7c3.1,0.5,3.1,0.5,2.2-2.4
		C53.1,13.2,52.9,12.6,52.5,11.7z"/>
	<path class="st0" d="M52.8,0.8c-7.8,0-14.3,6.4-14.3,14.1c0,7.8,6.3,14.3,14,14.3c8.1,0,14.3-6.2,14.3-14.1
		C66.9,7.3,60.5,0.8,52.8,0.8z M56.8,20.9c-1,0.2-1.5-0.4-1.6-1.3c-0.3-1.8-1.6-1.4-2.8-1.4c-1.1,0-2.2-0.1-2.4,1.5
		c-0.1,1.2-1,1.5-2,1.2c-1.1-0.4-0.4-1.2-0.2-1.9c1-2.9,2-5.7,3-8.6c0.3-1.1,1-1.2,2-1.2c1,0,1.6,0.4,1.9,1.3c1,3,2.1,6.1,3.2,9.1
		C58.2,20.6,57.9,21,56.8,20.9z"/>
</g>
<path class="st0" d="M15,0.8C7.2,0.8,0.8,7.3,0.8,15c0,7.8,6.3,14.2,14.1,14.2c7.9,0,14.2-6.2,14.2-14C29.2,7.2,22.8,0.8,15,0.8z
	 M21.5,10.8c-1.5-0.3-1.8,0.5-1.7,1.8c0.1,2.2,0,4.5,0,6.7c0,1-0.4,1.1-1.2,1.1c-0.9,0-1.3-0.2-1.2-1.2c0.1-0.8,0-1.6,0-2.4
	c0.1-0.9-0.2-1.3-1.2-1.3c-1.3,0.1-0.5,0.8-0.5,1.3c0.1,1.9-0.9,3.4-2.8,3.8c-1.9,0.5-4.8-0.6-5.3-2c-0.1-0.3-0.1-0.6,0.2-0.7
	c0.5-0.2,1-0.9,1.7-0.4c0.3,0.2,0.5,0.5,0.8,0.6c0.7,0.4,1.5,0.7,2.2,0.1c0.4-0.3,0.8-0.7,0.6-1.3c-0.3-0.9-1-1.3-1.8-1.4
	c-0.8,0-1.3-0.1-1.3-1.1c0-0.9,0.4-1,1.1-1.1c1-0.2,1.9-0.8,1.5-2c-0.4-1.2-1.3-1.1-2.3-0.7c-0.7,0.3-1.2,0.5-1.5-0.6
	C8.6,9.2,9.1,9,9.8,8.8c3.3-1.3,6.2,1,5.4,4c-0.1,0.3-0.4,0.8,0.3,0.8c0.6,0,1.6,0.3,1.7-0.3c0.2-0.8,0.8-2-0.6-2.4
	C15.8,10.6,16,10,16,9.5c-0.1-0.8,0.5-0.7,1-0.8c0.7,0,1.5,0,2.2,0c0.7,0,1.5,0,2.2,0c0.7,0,1,0.2,1,1C22.6,10.5,22.4,11,21.5,10.8z
	"/>
<g>
	<g>
		<path class="st0" d="M125.8,12.9c-0.2-0.4-0.4-0.5-0.8-0.5c-0.3,0.1-0.6,0.2-0.6,0.5c0.1,0.4,0.4,0.5,0.8,0.5
			C125.5,13.4,125.7,13.2,125.8,12.9z"/>
		<path class="st0" d="M128.2,0.8c-7.8,0-14.2,6.4-14.3,14.1c0,7.8,6.3,14.2,14.1,14.2c8,0,14.3-6.2,14.3-14.1
			C142.4,7.3,136,0.8,128.2,0.8z M129.3,19.7c-4,0.4-7.1-1.9-7.2-5.4c-0.1-1.7,0.5-3.1,2.2-3.8c1.7-0.6,2.9,0.2,3.8,1.6c0,0,0,0,0,0
			c-0.2,2.4-0.4,2.7-3.5,3.5c1,1.6,2.6,1.8,4.2,1.7c1.6-0.2,2.9-0.8,3.3-2.6c0.3-1.3-0.2-2-1.5-2c1,0.9,1.3,2.2,0.5,2.5
			c-1.5,0.6-2.6-0.1-2.7-1.7c0-0.5-0.1-0.9-0.1-1.4c0.6-1.5,1.9-1.9,3.4-1.7c1.4,0.3,2.3,1.3,2.5,2.7
			C134.7,16.3,132.5,19.3,129.3,19.7z"/>
	</g>
</g>
<path class="st0" d="M203.7,0.8c-7.7,0-14,6.5-14,14.3c0,7.7,6.3,14.1,14,14.1c7.8,0,14-6.3,14-14.1C217.7,7.2,211.4,0.8,203.7,0.8z
	 M210.3,10.8c-1-0.1-1.1,0.4-1.1,1.2c0,2.5,0,5.1,0,7.6c0,0.6,0.1,1.2-0.8,1.2c-0.8,0-1.2,0-1.3-1c-0.1-1.3-1.7-1.8-2.9-1.2
	c-2.9,1.6-6.8,0.3-8.2-2.7c-0.4-0.8,0.2-0.9,0.5-1.2c0.4-0.4,0.8-0.5,1.1,0.1c0.5,0.8,1.2,1.6,2,2.1c1,0.6,2,1.4,3.1,0.1
	c0.9-1.1,0.8-2.5-0.3-3.7c0,0-0.1,0.1-0.1,0.1c-0.1,0.9-0.1,1.9-1.3,2.1c-0.7,0.1-1.1-0.3-1.4-0.8c-0.4-1,0-1.9,0.8-2.6
	c0.9-0.8,2-0.9,2.9-0.5c1.3,0.6,2.1,1.7,2,3.1c-0.1,1.2,0.3,2,1.8,2.3c0-1.9,0-3.7,0-5.5c0-1-0.7-0.8-1.3-0.8c-2.9,0-5.8,0-8.7,0
	c-0.6,0-1.5,0.3-1.5-0.9c0-1.2,0.9-0.8,1.5-0.8c4.3,0,8.7,0,13,0c0.6,0,1.5-0.3,1.5,0.9C211.6,11.1,210.9,10.9,210.3,10.8z"/>
<g>
	<path class="st0" d="M165.9,0.8c-7.7,0-14.2,6.5-14.2,14.2c0,7.8,6.3,14.2,14.1,14.2c7.9,0,14.2-6.2,14.2-14
		C180.1,7.2,173.8,0.8,165.9,0.8z M171.2,17c-0.7,2-2.4,2.9-4.4,3c-5.2,0.4-8-3.3-6.1-8c0.5-1.2,1.2-2.2,2.7-1.9
		c1.4,0.3,1.8,1.4,1.7,2.6c-0.1,1.4-0.8,2.3-2.4,2.1c-1.2-0.1-0.7,0.6-0.6,1.1c0.5,1.5,2.5,2.6,4.3,2.4c2-0.3,3.4-1.6,3.5-3.4
		c0-0.9-0.2-1.7-0.5-2.5c-0.1-0.4-0.5-0.7-1-0.4c-0.3,0.3-0.3,0.6-0.1,0.9c0,0,0.1,0.1,0.1,0.1c0.6,0.4,0.9,1.1,0.6,1.8
		c-0.4,0.8-1.2,0.2-1.8,0.4c-0.6-0.1-1.4,0.3-1.8-0.3c-0.4-0.8-0.1-1.4,0.8-1.7c0.1,0,0.1-0.6,0.1-1c0.1-1.1,0.6-1.9,1.7-2.1
		c1-0.3,1.9,0,2.5,0.8C171.9,12.8,172,14.9,171.2,17z"/>
	<path class="st0" d="M162.6,13c0.3,0,0.5-0.3,0.5-0.6c0-0.3-0.2-0.6-0.5-0.6c-0.2,0-0.4,0.4-0.5,0.6C162.1,12.8,162.3,13,162.6,13z
		"/>
</g>
<g>
	<path class="st0" d="M281.4,20.8c0.7,0.1,0.8-0.6,0.9-1.4c0.1-0.6-0.2-1-1.1-0.9c-0.4,0.1-1.2-0.4-1.1,0.5
		C280.1,19.8,280.4,20.7,281.4,20.8z"/>
	<path class="st0" d="M279.2,0.8c-7.8,0-14.3,6.4-14.3,14.1c0,7.8,6.3,14.3,14,14.3c8.1,0,14.3-6.2,14.3-14.1
		C293.3,7.3,287,0.8,279.2,0.8z M285.8,21.7c-0.3,0.3-0.5,0.6-1,0.2c-0.6-0.5-0.3-0.9,0-1.3c1.4-2.4,1.9-4.9,1.2-7.6
		c-0.1-0.4-0.3-0.9-0.4-1.3c-0.5-1.2-1.3-2.1-2.7-2.2c-1.4,0-2.3,1-2.8,2.2c-0.5,1.2-0.7,2.5-0.7,3.9c0,1.1,0.3,1.5,1.5,1.5
		c1.2,0,1.3-0.5,1.3-1.5c-0.1-0.9,0-1.8,0-2.8c0-0.4-0.1-1,0.6-1c0.8,0,0.7,0.5,0.7,1c0,1.2,0,2.3,0,3.5c0,0,0,0,0,0
		c0,1.2,0,2.3,0,3.5c0,1.1-0.4,2-1.4,2.3c-1.2,0.3-2.4,0-2.8-1.1c-0.7-2.6-2.4-2.8-4.6-2.6c-1.2,0.1-1-0.8-0.6-1.3
		c0.6-0.7,0.4-1.2-0.2-1.6c-0.6-0.5-1.2-0.6-1.9-0.1c-0.5,0.4-0.9,1-0.5,1.6c0.5,0.7,0.5,1.3-0.2,1.6c-0.7,0.3-1.1-0.6-1.3-1.1
		c-0.6-1.5,0.3-3.2,1.9-3.7c1.7-0.5,3.6,0.4,3.8,2.2c0.1,1,0.4,1.3,1.4,1.2c1.1-0.1,0.8-0.8,0.8-1.4c-0.1-2.1,0.3-4.1,1.5-5.9
		c1.4-2,4-2.4,5.9-0.8C288.4,11.4,288.6,19.1,285.8,21.7z"/>
</g>
<g>
	<path class="st0" d="M241.4,0.8c-7.7,0-14.2,6.5-14.2,14.2c0,7.8,6.3,14.2,14.2,14.2c7.9,0,14.2-6.2,14.2-14
		C255.6,7.2,249.2,0.8,241.4,0.8z M248.1,10.5c-2.1-0.4-2.3,0.7-2.2,2.4c0.1,2,0,4,0.1,6.1c0,1-0.4,1.3-1.3,1.3
		c-0.9,0-1.2-0.4-1.2-1.2c0-2.3-0.1-4.6,0-6.9c0.1-1.4-0.4-1.7-1.7-1.6c-2.2,0.1-4.2,0.5-5.3,3c1,0.3,1.9,0,2.7,0.4
		c1.5,0.7,2.3,1.9,2.1,3.6c-0.1,1.6-1,2.5-2.5,3c-1.6,0.5-3.3-0.2-4.3-1.5c-2.6-3.9,0.4-10,5.3-10.4c2.7-0.2,5.4,0,8.1-0.1
		c0.8,0,1,0.3,1,1C249,10.1,248.9,10.6,248.1,10.5z"/>
	<path class="st0" d="M239,17c-0.1,0.8-0.5,1.5-1.3,1.4c-0.9-0.1-1.4-0.8-1.4-1.7c0-0.8,0.6-1.1,1.3-1C238.4,15.7,238.8,16.3,239,17
		z"/>
</g>
</svg>
