<?xml version="1.0" encoding="utf-8"?>
<!-- Generator: Adobe Illustrator 23.0.1, SVG Export Plug-In . SVG Version: 6.00 Build 0)  -->
<svg version="1.1" id="Layer_1" xmlns="http://www.w3.org/2000/svg" xmlns:xlink="http://www.w3.org/1999/xlink" x="0px" y="0px"
	 viewBox="0 0 52 20" style="enable-background:new 0 0 52 20;" xml:space="preserve">
<style type="text/css">
	.st0{fill:#3EA7C0;}
	.st1{fill:#53C8EA;}
	.st2{fill:#3090A0;}
	.st3{fill:#FFFFFF;}
</style>
<g>
	<g>
		<g>
			<g>
				<g>
					<polygon class="st0" points="0.5,6.9 0.5,13 4.1,12.4 4.1,7.5 					"/>
				</g>
				<g>
					<polygon class="st1" points="4.1,7.5 4.1,12.4 21.5,19.1 21.6,0.9 					"/>
				</g>
				<g>
					<path class="st0" d="M22.6,19.5c0,0.3-0.2,0.6-0.6,0.5l0,0c-0.3,0-0.6-0.2-0.6-0.6l0-18.9c0-0.3,0.2-0.6,0.6-0.6l0,0
						c0.3,0,0.6,0.2,0.6,0.6L22.6,19.5z"/>
				</g>
			</g>
			<g>
				<g>
					<path class="st2" d="M4.3,17c0-0.1,0.1-0.3,0.1-0.6c-0.4,0.1-0.6,0.1-0.6,0.1c0,0,0,0.1,0,0.1C4,16.8,4.2,16.9,4.3,17z"/>
					<path class="st2" d="M2.5,12.7c0.1,0.4-0.2,3.1,3.3,4c3.4,0.9,5.4-1.4,5.5-1.5l1,0.4c-0.2,0.2-2.3,3.5-6.7,2.2
						c-4.4-1.3-3.9-4.5-4-4.9L2.5,12.7z"/>
				</g>
			</g>
		</g>
	</g>
	<g>
		<path class="st1" d="M44.4,19h6c0.6,0,1.1-0.5,1.1-1.1V3.3V2.2C51.5,1.5,51,1,50.4,1h-6h-2v0.4c0,0,0,0.1,0,0.1V4v0.6
			c0,0.9-0.7,1.6-1.6,1.6h-0.6h-2.4c0,0-0.1,0-0.1,0h-0.4v11.7c0,0.6,0.5,1.1,1.1,1.1h1.2H44.4L44.4,19z M44.6,15.2h-3.9
			c-0.3,0-0.5-0.2-0.5-0.5c0-0.3,0.2-0.5,0.5-0.5h3.9c0.3,0,0.5,0.2,0.5,0.5C45.2,14.9,44.9,15.2,44.6,15.2z M48.5,12.5h-7.8
			c-0.3,0-0.5-0.2-0.5-0.5c0-0.3,0.2-0.5,0.5-0.5h7.8c0.3,0,0.5,0.2,0.5,0.5C49.1,12.2,48.8,12.5,48.5,12.5z M40.7,8.6h7.8
			c0.3,0,0.5,0.2,0.5,0.5s-0.2,0.5-0.5,0.5h-7.8c-0.3,0-0.5-0.2-0.5-0.5S40.4,8.6,40.7,8.6z"/>
		<path class="st0" d="M37.8,5.5h3.1c0,0,0,0,0,0c0.5,0,0.9-0.4,0.9-0.9c0,0,0,0,0,0V1.5c0-0.3-0.2-0.5-0.5-0.5
			c-0.1,0-0.2,0-0.3,0.1l-3.5,3.5C37.2,5,37.4,5.5,37.8,5.5z"/>
	</g>
	<path class="st3" d="M33,9.6l-3.8-3.8c-0.1-0.1-0.3-0.2-0.4-0.2s-0.3,0.1-0.4,0.2c-0.2,0.2-0.2,0.6,0,0.9l2.7,2.7h-2.5h-0.4h-1.6
		C26.3,9.4,26,9.7,26,10s0.3,0.6,0.6,0.6h1.8h0.1h2.6l-2.7,2.7c-0.2,0.2-0.2,0.6,0,0.9c0.2,0.2,0.6,0.2,0.9,0l3.8-3.8
		C33.3,10.2,33.3,9.8,33,9.6z"/>
</g>
</svg>
