<?xml version="1.0" encoding="utf-8"?>
<!-- Generator: Adobe Illustrator 23.0.1, SVG Export Plug-In . SVG Version: 6.00 Build 0)  -->
<svg version="1.1" id="Layer_1" xmlns="http://www.w3.org/2000/svg" xmlns:xlink="http://www.w3.org/1999/xlink" x="0px" y="0px"
	 viewBox="0 0 30.5 24" style="enable-background:new 0 0 30.5 24;" xml:space="preserve">
<style type="text/css">
	.st0{fill:#3EA7C0;}
	.st1{fill:#53C8EA;}
	.st2{fill:#181519;}
</style>
<g>
	<path class="st0" d="M27.8,11.5c-0.6,0.4-1.4,0.7-2.1,0.7V4.7c1.6,0,3.1,1.1,3.5,2.6C29.7,8.9,29.1,10.6,27.8,11.5z"/>
	<path class="st1" d="M25.6,4.7v9.4c0,1.2-1,2.2-2.2,2.2H10l-6,5.3v-5.3H2.7c-1.2,0-2.2-1-2.2-2.2V2.8c0-1.2,1-2.2,2.2-2.2h20.7
		c1.2,0,2.2,1,2.2,2.2V4.7z M21.3,6.7V5.5c0-0.8-0.7-1.5-1.5-1.5s-1.5,0.7-1.5,1.5v1.2H21.3z M16,9.1h-6c0,1.7,1.3,3,3,3
		S16,10.8,16,9.1z M7.7,6.7V5.5C7.7,4.6,7.1,4,6.3,4C5.4,4,4.8,4.6,4.8,5.5v1.2H7.7z"/>
	<path class="st0" d="M21.3,5.5v1.2h-3V5.5C18.3,4.6,19,4,19.8,4S21.3,4.6,21.3,5.5z"/>
	<path class="st0" d="M18.9,20.8c0,1.3-1.1,2.4-2.4,2.4c-1.3,0-2.4-1.1-2.4-2.4c0-1.3,1.1-2.4,2.4-2.4
		C17.8,18.4,18.9,19.5,18.9,20.8z"/>
	<path class="st0" d="M10,9.1h6c0,1.7-1.3,3-3,3S10,10.8,10,9.1z"/>
	<path class="st0" d="M7.7,5.5v1.2h-3V5.5C4.8,4.6,5.4,4,6.3,4C7.1,4,7.7,4.6,7.7,5.5z"/>
	<g>
		<path class="st2" d="M6.3,3.5c-1.1,0-1.9,0.9-1.9,1.9v1.2c0,0.2,0.2,0.4,0.4,0.4h3C8,7.2,8.2,7,8.2,6.7V5.5
			C8.2,4.4,7.3,3.5,6.3,3.5z M7.3,6.3H5.2V5.5c0-0.4,0.3-0.8,0.7-1C6.2,4.3,6.7,4.4,7,4.7l0,0c0.2,0.2,0.3,0.5,0.3,0.8V6.3z"/>
		<path class="st2" d="M19.8,3.5c-1.1,0-1.9,0.9-1.9,1.9v1.2c0,0.2,0.2,0.4,0.4,0.4h3c0.2,0,0.4-0.2,0.4-0.4V5.5
			C21.8,4.4,20.9,3.5,19.8,3.5z M20.9,6.3h-2.1V5.5c0-0.4,0.3-0.8,0.7-1c0.4-0.2,0.9-0.1,1.2,0.2c0.2,0.2,0.3,0.5,0.3,0.8V6.3z"/>
		<path class="st2" d="M16,8.7h-6c-0.2,0-0.4,0.2-0.4,0.4c0,1.9,1.5,3.4,3.4,3.4c1.9,0,3.4-1.5,3.4-3.4C16.5,8.9,16.3,8.7,16,8.7z
			 M14.8,10.9c-0.7,0.7-1.7,0.9-2.6,0.6c-0.9-0.3-1.6-1.1-1.7-2h5C15.5,10.1,15.2,10.5,14.8,10.9z"/>
		<path class="st2" d="M22.9,20.3h-3.6c-0.2-1.4-1.5-2.5-3-2.4c-1.5,0.1-2.6,1.3-2.6,2.8s1.1,2.7,2.6,2.8c1.5,0.1,2.8-0.9,3-2.4h3.6
			c2.9,0,5.3-2.4,5.3-5.3v-4.2c1.3-1,1.9-2.8,1.4-4.4c-0.5-1.6-1.9-2.8-3.5-3V2.8c0-1.5-1.2-2.7-2.7-2.7H2.7C1.2,0.2,0,1.4,0,2.8
			v11.3c0,1.5,1.2,2.7,2.7,2.7h0.9v4.9c0,0.2,0.1,0.3,0.3,0.4c0.2,0.1,0.3,0,0.5-0.1l5.9-5.2h13.2c1.5,0,2.7-1.2,2.7-2.7v-1.5
			c0.4,0,0.9-0.2,1.3-0.3v3.7C27.3,18.4,25.4,20.3,22.9,20.3z M16.5,22.7c-1.1,0-1.9-0.9-1.9-1.9s0.9-1.9,1.9-1.9
			c1.1,0,1.9,0.9,1.9,1.9C18.5,21.8,17.6,22.7,16.5,22.7z M25.2,14.1c0,1-0.8,1.8-1.8,1.8H10c-0.1,0-0.2,0-0.3,0.1l-5.3,4.7v-4.4
			c0-0.2-0.2-0.4-0.4-0.4H2.7c-1,0-1.8-0.8-1.8-1.8V2.8c0-1,0.8-1.8,1.8-1.8h20.7c1,0,1.8,0.8,1.8,1.8V14.1z M26.1,5.2
			c1.3,0.2,2.4,1.2,2.8,2.5c0.3,1.3-0.2,2.7-1.3,3.5c-0.4,0.3-0.9,0.5-1.4,0.6V5.2z"/>
	</g>
</g>
</svg>
