<?xml version="1.0" encoding="utf-8"?>
<!-- Generator: Adobe Illustrator 23.0.1, SVG Export Plug-In . SVG Version: 6.00 Build 0)  -->
<svg version="1.1" id="Layer_1" xmlns="http://www.w3.org/2000/svg" xmlns:xlink="http://www.w3.org/1999/xlink" x="0px" y="0px"
	 viewBox="0 0 54 20" style="enable-background:new 0 0 54 20;" xml:space="preserve">
<style type="text/css">
	.st0{fill:#3EA7C0;}
	.st1{fill:#53C8EA;}
	.st2{fill:#3090A0;}
	.st3{fill:#FFFFFF;}
</style>
<g>
	<g>
		<g>
			<g>
				<g>
					<polygon class="st0" points="0.5,6.9 0.5,13 4.1,12.4 4.1,7.5 					"/>
				</g>
				<g>
					<polygon class="st1" points="4.1,7.5 4.1,12.4 21.5,19.1 21.6,0.9 					"/>
				</g>
				<g>
					<path class="st0" d="M22.6,19.5c0,0.3-0.2,0.6-0.6,0.5l0,0c-0.3,0-0.6-0.2-0.6-0.6V0.5c0-0.3,0.2-0.6,0.6-0.6l0,0
						c0.3,0,0.6,0.2,0.6,0.6V19.5z"/>
				</g>
			</g>
			<g>
				<g>
					<path class="st2" d="M4.3,17c0-0.1,0.1-0.3,0.1-0.6c-0.4,0.1-0.6,0.1-0.6,0.1v0.1C4,16.8,4.2,16.9,4.3,17z"/>
					<path class="st2" d="M2.5,12.7c0.1,0.4-0.2,3.1,3.3,4c3.4,0.9,5.4-1.4,5.5-1.5l1,0.4c-0.2,0.2-2.3,3.5-6.7,2.2s-3.9-4.5-4-4.9
						L2.5,12.7z"/>
				</g>
			</g>
		</g>
	</g>
	<path class="st3" d="M33,9.6l-3.8-3.8c-0.1-0.1-0.3-0.2-0.4-0.2s-0.3,0.1-0.4,0.2c-0.2,0.2-0.2,0.6,0,0.9l2.7,2.7h-2.5h-0.4h-1.6
		C26.3,9.4,26,9.7,26,10s0.3,0.6,0.6,0.6h1.8h0.1h2.6l-2.7,2.7c-0.2,0.2-0.2,0.6,0,0.9c0.2,0.2,0.6,0.2,0.9,0l3.8-3.8
		C33.3,10.2,33.3,9.8,33,9.6z"/>
	<g>
		<path class="st0" d="M47.5,6.4c-1.2,0.3-1.8,1.8-1.2,2.9l1.2-1.2V6.4z"/>
		<path class="st0" d="M47.7,17.3h-0.7L46.9,16h-4.9l-0.2,1.3h-0.7c-0.3,0-0.5,0.2-0.5,0.5s0.2,0.5,0.5,0.5h6.7
			c0.3,0,0.5-0.2,0.5-0.5S48,17.3,47.7,17.3z"/>
		<path class="st0" d="M47,10.1c1.1,0.6,2.6,0,2.9-1.2h-1.7L47,10.1z"/>
		<path class="st1" d="M51.7,1.7h-6.8v1.6c0,0.3-0.2,0.5-0.5,0.5s-0.5-0.2-0.5-0.5V1.7h-6.8c-0.9,0-1.6,0.7-1.6,1.6v10.1
			c0,0.9,0.7,1.6,1.6,1.6h14.7c0.9,0,1.6-0.7,1.6-1.6V3.3C53.3,2.4,52.6,1.7,51.7,1.7z M43.3,11.1c0,0.3-0.2,0.5-0.5,0.5h-4.4
			c-0.3,0-0.5-0.2-0.5-0.5V5.6C37.8,5.3,38,5,38.3,5c0.3,0,0.5,0.2,0.5,0.5v5H40V7.2c0-0.3,0.2-0.5,0.5-0.5c0.3,0,0.5,0.2,0.5,0.5
			v3.4h1.2V8.9c0-0.3,0.2-0.5,0.5-0.5c0.3,0,0.5,0.2,0.5,0.5V11.1z M48,11.4c-1.7,0-3-1.4-3-3c0-1.7,1.4-3,3-3c1.7,0,3,1.4,3,3
			S49.7,11.4,48,11.4z"/>
		<path class="st0" d="M48.5,6.4v1.4h1.4C49.7,7.1,49.2,6.6,48.5,6.4z"/>
	</g>
</g>
</svg>
